<?xml version="1.0" standalone="no"?><!DOCTYPE svg PUBLIC "-//W3C//DTD SVG 1.1//EN" "http://www.w3.org/Graphics/SVG/1.1/DTD/svg11.dtd"><svg t="1603850127006" class="icon" viewBox="0 0 1024 1024" version="1.1" xmlns="http://www.w3.org/2000/svg" p-id="3031" width="28" height="28" xmlns:xlink="http://www.w3.org/1999/xlink"><defs><style type="text/css"></style></defs><path d="M704 755.8 204.8 755.8 204.8 396.4l115 0c0 0 28.2-39.4 85.4-76.4L166.4 320c-21.2 0-38.4 17-38.4 38.2l0 435.8c0 21 17.2 38.2 38.4 38.2l576 0c21.2 0 38.4-17 38.4-38.2L780.8 576 704 638.8 704 755.8zM640 448l0 127.8 256-191L640 192l0 119.4C330.4 311.4 320 640 320 640 407.6 497 472 448 640 448z" p-id="3032" fill="#b4b4b4"></path></svg>