<svg xmlns="http://www.w3.org/2000/svg" viewBox="0 0 14.11 8.67"><defs><style>.cls-1{fill:#b4b4b4;}</style></defs><g id="Layer_2" data-name="Layer 2"><g id="Layer_1-2" data-name="Layer 1"><path class="cls-1" d="M0,8.67V1.88a.64.64,0,0,1,.72-.73h.33a.65.65,0,0,0,.36-.07A.6.6,0,0,0,1.58.77l0-.24A.77.77,0,0,1,1.88.08,1.76,1.76,0,0,1,2.55,0H4.79a1.51,1.51,0,0,1,.62.08.68.68,0,0,1,.24.41L5.71.7a.84.84,0,0,0,.19.4,1.29,1.29,0,0,0,.47,0h4.05a.78.78,0,0,1,.56.16.84.84,0,0,1,.15.58v.57h2.33c.42,0,.64.07.65.22a2.83,2.83,0,0,1-.21.47L11.13,8.67Zm.29-.6L2.81,3.16a1.8,1.8,0,0,1,.42-.62A2.17,2.17,0,0,1,4,2.46h6.82V1.89a.39.39,0,0,0-.44-.45H6.33a2.25,2.25,0,0,1-.68-.06A.68.68,0,0,1,5.44,1L5.37.71A.74.74,0,0,0,5.2.35,1,1,0,0,0,4.77.29H2.6a1.11,1.11,0,0,0-.5.07.52.52,0,0,0-.2.33L1.83,1a.76.76,0,0,1-.21.41,1.11,1.11,0,0,1-.51.07H.75a.53.53,0,0,0-.37.09q-.09.07-.09.36Zm.17.31H11l2.59-5.2a1.79,1.79,0,0,0,.13-.31c0-.09-.13-.13-.36-.13H3.85a1,1,0,0,0-.47.08.76.76,0,0,0-.26.34Z"/></g></g></svg>