<?xml version="1.0" standalone="no"?><!DOCTYPE svg PUBLIC "-//W3C//DTD SVG 1.1//EN" "http://www.w3.org/Graphics/SVG/1.1/DTD/svg11.dtd"><svg t="1602839534890" class="icon" viewBox="0 0 1024 1024" version="1.1" xmlns="http://www.w3.org/2000/svg" p-id="4427" width="24" height="24" xmlns:xlink="http://www.w3.org/1999/xlink"><defs><style type="text/css"></style></defs><path d="M204.8 384H128A25.6 25.6 0 0 0 102.4 409.6v256c0 14.1312 11.4688 25.6 25.6 25.6H204.8V614.4a76.8 76.8 0 0 1 76.8-76.8h460.8A76.8 76.8 0 0 1 819.2 614.4v76.8h76.8a25.6 25.6 0 0 0 25.6-25.6V409.6a25.6 25.6 0 0 0-25.6-25.6H204.8z m0-51.2V204.8a76.8 76.8 0 0 1 76.8-76.8h460.8A76.8 76.8 0 0 1 819.2 204.8v128h76.8A76.8 76.8 0 0 1 972.8 409.6v256a76.8 76.8 0 0 1-76.8 76.8H819.2v128a76.8 76.8 0 0 1-76.8 76.8H281.6A76.8 76.8 0 0 1 204.8 870.4v-128H128A76.8 76.8 0 0 1 51.2 665.6V409.6a76.8 76.8 0 0 1 76.8-76.8H204.8z m76.8 256a25.6 25.6 0 0 0-25.6 25.6v256c0 14.1312 11.4688 25.6 25.6 25.6h460.8a25.6 25.6 0 0 0 25.6-25.6V614.4a25.6 25.6 0 0 0-25.6-25.6H281.6z m58.504533 128.477867a25.6 25.6 0 1 1 0-51.2h343.1424a25.6 25.6 0 1 1 0 51.2H340.104533z m0 102.4a25.6 25.6 0 1 1 0-51.2h343.1424a25.6 25.6 0 1 1 0 51.2H340.104533z m505.6512-351.470934a25.6 25.6 0 1 1 0-51.2 25.6 25.6 0 0 1 0 51.2zM768 332.8V204.8a25.6 25.6 0 0 0-25.6-25.6H281.6A25.6 25.6 0 0 0 256 204.8v128h512z" p-id="4428" fill="#b4b4b4"></path></svg>