<svg id="Layer_1" data-name="Layer 1" xmlns="http://www.w3.org/2000/svg" viewBox="0 0 40.62 37.64"><defs><style>.cls-1{fill:#ffffff;}</style></defs><g id="Layer_2" data-name="Layer 2"><g id="Layer_1-2" data-name="Layer 1-2"><path class="cls-1" d="M23.72,4.48a8.3,8.3,0,0,0-3-.59,5.31,5.31,0,0,0-3.89,1.5L8,14.16l.91.91L5.6,18.42,0,12.82,3.33,9.49l1,1,8.72-8.72A5.43,5.43,0,0,1,17,0Q20.42,0,23.72,4.48ZM40.38,7.34A5.85,5.85,0,0,1,40.62,9a5.77,5.77,0,0,1-5.79,5.79,6.15,6.15,0,0,1-1.76-.26l-5.65,5.65L40.24,32.41l-5.11,5.11L22.85,24.7l-5.37,5.39a6,6,0,0,1,.26,1.74A5.66,5.66,0,0,1,16.07,36,5.6,5.6,0,0,1,12,37.64a6.07,6.07,0,0,1-1.64-.23L14.77,33l-4.39-4.38L5.93,33a5.81,5.81,0,0,1,5.48-7.43h.1a6.53,6.53,0,0,1,1.64.21l5.51-5.48-8-8.32,4-4L23,16l5.76-5.77a6.32,6.32,0,0,1-.21-1.62A5.61,5.61,0,0,1,30.2,4.45a5.55,5.55,0,0,1,4.1-1.69A6.07,6.07,0,0,1,36,3L31.57,7.41l4.36,4.38ZM10.55,3.82l-4,4L5.78,7l4-4Z" transform="translate(0 0)"/></g></g></svg>