<svg xmlns="http://www.w3.org/2000/svg" fill="none" viewBox="0 0 48 48"><path fill-opacity=".01" fill="#fff" d="M0 0h48v48H0z" data-follow-fill="#fff"/><path stroke-linejoin="round" stroke-width="4" stroke="#b4b4b4" d="M35 16a5 5 0 1 0 0-10 5 5 0 0 0 0 10zM13 29a5 5 0 1 0 0-10 5 5 0 0 0 0 10z" data-follow-stroke="#b4b4b4"/><path stroke-linejoin="round" stroke-linecap="round" stroke-width="4" stroke="#b4b4b4" d="m30 13.575-12.661 7.67M17.339 26.564l13.34 7.883" data-follow-stroke="#b4b4b4"/><path stroke-linejoin="round" stroke-width="4" stroke="#b4b4b4" d="M35 32a5 5 0 1 1 0 10 5 5 0 0 1 0-10z" data-follow-stroke="#b4b4b4"/></svg>