<?xml version="1.0" encoding="utf-8"?>
<!-- Generator: Adobe Illustrator 23.0.1, SVG Export Plug-In . SVG Version: 6.00 Build 0)  -->
<svg version="1.1" id="图层_1" xmlns="http://www.w3.org/2000/svg" xmlns:xlink="http://www.w3.org/1999/xlink" x="0px" y="0px"
	 viewBox="0 0 24 24" style="enable-background:new 0 0 24 24;" xml:space="preserve">
<style type="text/css">
	.st0{fill:none;}
	.st1{fill:#ffffff;}
</style>
<path class="st0" d="M0,0h24v24H0V0z"/>
<path class="st1" d="M21,3H3C2,3,1,4,1,5v14c0,1.1,0.9,2,2,2h18c1,0,2-1,2-2V5C23,4,22,3,21,3z M21,18.9C21,19,20.9,19,21,18.9L3,19
	V5.1L3.1,5h17.8c0,0,0.1,0.1,0.1,0.1L21,18.9L21,18.9z M11,15.5l-2.5-3L5,17h14l-4.5-6L11,15.5z"/>
</svg>
