<svg xmlns="http://www.w3.org/2000/svg" viewBox="0 0 8.67 8.67"><defs><style>.cls-1{fill:#b4b4b4;}</style></defs><g id="Layer_2" data-name="Layer 2"><g id="Layer_1-2" data-name="Layer 1"><path class="cls-1" d="M1.73,4.62V0H6.94V4.62H7.8c.42,0,.67,0,.75.13a1.31,1.31,0,0,1,.12.74V7.8c0,.4,0,.64-.14.73s-.33.14-.73.14H.87c-.4,0-.64,0-.73-.14A1.18,1.18,0,0,1,0,7.8V5.49a1.31,1.31,0,0,1,.12-.74c.09-.09.33-.13.75-.13ZM.87,8.38H7.8a.84.84,0,0,0,.49-.09.84.84,0,0,0,.09-.49V5.49c0-.27,0-.44-.08-.49s-.22-.09-.5-.09H.87c-.28,0-.44,0-.5.09a.89.89,0,0,0-.08.49V7.8a.75.75,0,0,0,.1.49A.78.78,0,0,0,.87,8.38ZM1.3,6.77V6.53a.56.56,0,0,1,.08-.35.56.56,0,0,1,.35-.08H6.94a.56.56,0,0,1,.35.08.56.56,0,0,1,.08.35v.24a.38.38,0,0,1-.43.43H1.73A.38.38,0,0,1,1.3,6.77ZM2,4.62H6.65V.29H2Zm.73-3.18V1.15H5.92v.29Zm0,1.16V2.31H5.92V2.6Zm0,1.16V3.47H5.92v.29Z"/></g></g></svg>