<svg xmlns="http://www.w3.org/2000/svg" viewBox="0 0 8.67 8.67"><defs><style>.cls-1{fill:#b4b4b4;}</style></defs><g id="Layer_2" data-name="Layer 2"><g id="Layer_1-2" data-name="Layer 1"><path class="cls-1" d="M0,7.52V.57A.54.54,0,0,1,.17.17.57.57,0,0,1,.58,0H8.1a.54.54,0,0,1,.4.17.51.51,0,0,1,.17.4V8.09a.53.53,0,0,1-.17.41.51.51,0,0,1-.4.17H1.15Zm6.36.86H8.1a.25.25,0,0,0,.21-.07.28.28,0,0,0,.07-.21V.57A.24.24,0,0,0,8.1.29H7.23V3.75a.58.58,0,0,1-.58.58H2a.58.58,0,0,1-.41-.17.56.56,0,0,1-.16-.41V.29H.58C.38.29.29.38.29.57V7.4l1,1h1V5.78a.26.26,0,0,1,.29-.29H6.07a.25.25,0,0,1,.29.29ZM6.94.29H1.73V3.76A.29.29,0,0,0,1.81,4,.28.28,0,0,0,2,4H6.66c.19,0,.28-.09.28-.29ZM4.05,5.78H2.6v2.6H4.05Z"/></g></g></svg>